<?xml version="1.0" encoding="utf-8"?>
<svg xmlns="http://www.w3.org/2000/svg" width="773" height="512">
  <g fill="#ffc705" transform="translate(1116.9 -244.98) scale(.88457)">
	<path d="M-786.35845 730.4041c-2.8444-3.8222-4.3555-8.3555-4.3555-13.15547 0-12.17769 9.9555-22.13317 22.2221-22.13317 9.6888 0 17.5998-7.91105 17.6887-17.68875-.089-9.77771-7.9999-17.68876-17.6887-17.68876-20.7999 0-37.5998 16.88876-37.5998 37.59973 0 13.77766 7.5555 26.48868 19.7332 33.06642zm17.8666-47.6441c-3.0222 0-5.4222-2.39998-5.4222-5.33329s2.4-5.3333 5.4222-5.3333c2.9333 0 5.3333 2.39999 5.3333 5.3333 0 2.93331-2.4 5.33329-5.3333 5.33329z"/>
	<path d="M-750.62535 664.27125c2.7555 3.82219 4.2666 8.44438 4.2666 13.15546 0 12.26658-9.8666 22.22205-22.1331 22.22205-9.7777 0-17.6888 7.91106-17.6888 17.59987 0 9.77771 7.9111 17.68877 17.6888 17.68877 20.7109 0 37.5997-16.79988 37.5997-37.59972 0-13.77768-7.6444-26.4887-19.7332-33.06643zm-17.8665 47.64409c2.9333 0 5.3333 2.39998 5.3333 5.33329 0 3.0222-2.4 5.42219-5.3333 5.42219-3.0222 0-5.4222-2.39999-5.4222-5.42219 0-2.93331 2.4-5.33329 5.4222-5.33329z"/>
	<path d="M-704.84795 501.33912c-2.4888 33.33309-30.222 59.11068-63.6439 59.19957-33.3331 0-61.0662-25.6887-63.7329-58.9329-1.5111 5.68884-2.3111 11.46658-2.4 17.24432 0 36.53306 29.5998 66.13284 66.1329 66.13284 36.4441 0 66.0439-29.59978 66.0439-66.13284 0-5.86663-.8-11.82214-2.4-17.51099z"/>
	<path d="M-433.91655 508.45019c0 2.93331-2.4 5.33329-5.4222 5.33329-2.9333 0-5.3333-2.39998-5.3333-5.33329 0-3.0222 2.4-5.42219 5.3333-5.42219 3.0222 0 5.4222 2.39999 5.4222 5.42219z"/>
	<path d="M-715.33675 496.62805c0 29.33312-23.822 53.15516-53.1551 53.15516-29.422 0-53.2441-23.82204-53.2441-53.15516 0-29.422 23.8221-53.24405 53.2441-53.24405 29.3331 0 53.1551 23.82205 53.1551 53.24405z"/>
	<path d="M-806.09165 743.11511v23.11094h75.1995v-23.11094z"/>
	<path d="M-565.47115 442.85067c-.9778 0-1.9556.0889-2.9333.17778-1.4222.0889-2.8444.26666-4.1778.44444-1.4222.26667-2.7555.53332-4.0888.88888-1.3334.44444-2.6667.88889-4 1.33332-1.2444.53333-2.5778 1.06667-3.8222 1.77777-1.2444.62222-2.4 1.33332-3.6444 2.04443-1.1556.79999-2.3111 1.59999-3.3778 2.39998-1.0666.88889-2.1333 1.86665-3.1111 2.84442-1.0666.88889-1.9555 1.95554-2.9333 3.0222-.8888 1.06667-1.6888 2.22221-2.4888 3.37776-.8 1.15554-1.5111 2.31108-2.2222 3.55553-.6223 1.15554-1.2445 2.48887-1.7778 3.7333-.5333 1.33332-1.0667 2.57775-1.4222 3.91109-.4445 1.33332-.8 2.75553-1.0667 4.08885-.2666 1.33333-.5333 2.75554-.6222 4.17775-.1778 1.33332-.2667 2.75553-.2667 4.17774l.089 117.59913h-117.688v190.13192h268.0869v16.71099h-45.6885c-3.2889 0-5.9555-2.66664-5.8667-5.95551h-56.9773c-23.6443 0-41.8664 19.11097-41.8664 40.7997h147.6434c23.4665 0 44.6219-18.75542 44.6219-44.53301v-56.44402h-73.4217c.5333-1.68888 1.0667-3.46665 1.4222-5.33329h78.48831v61.8662c-.0889 22.93317-22.48871 42.66636-45.42191 44.44412h3.4667c24.2665 0 49.42183-20.17763 49.42183-44.44412v-67.82171h-85.24383c.8-14.75546-8.5333-30.31089-22.1332-36.44418v-180.532c0-4.17774 3.2889-7.5555 7.4667-7.5555v53.24406c37.1552 0 55.644 52.53294 18.3109 52.53294v38.75527h17.7777c-6.5778-3.11109-10.8444-9.68882-10.8444-16.97766 0-10.39992 8.4444-18.8443 18.8443-18.8443 10.3111 0 18.7554 8.44438 18.7554 18.8443 0 7.28884-4.2666 13.86657-10.8443 16.97766h23.7331c0-7.64439 6.6666-15.55545 10.2222-15.55545V442.85067Zm122.1324 34.7553c-.2666 1.15554-.7111 6.75551.8889 8.35549 7.1111 4.79996 11.3777 12.79991 11.3777 21.33317 0 8.62217-4.2666 16.53322-11.3777 21.33318-4.4444-6.13329-6.8444-13.5999-6.9333-21.33318 0-7.02216 2.1333-13.86655 5.9555-19.73318-1.2444-2.39998-.6222-7.99994.089-9.95548zm1.7778.62222c-.1778 2.04442.1778 4.5333.4444 5.33329.3556.88889 1.1556 2.13332 2.4889 2.75553 8.5333 3.64442 17.4221 11.99991 17.4221 20.97762 0 9.51105-10.3999 18.04432-19.1999 21.33318 7.9111-4.17774 14.9333-12.35546 14.9333-21.33318 0-8.79993-6.9333-16.97764-14.7555-21.1554-.8-.62221-1.2444-1.59998-1.4222-2.57775-.089-1.06666-.3556-3.91108.089-5.33329zm-226.4872 124.17685c14.311 20.53318 21.9554 44.88856 22.0443 69.86615-.089 25.59981-8.0889 49.8663-22.0443 69.95504zm241.9537 23.55538c2.6667 0 4.8 2.13332 4.8 4.79997 0 2.75553-2.1333 4.88885-4.8 4.88885-1.0666 0-2.0444-.35555-2.8444-.97778-.7111-.44443-3.1111.0889-3.0222 2.57777-2.5777-4.44441 0-10.75548 5.1555-11.19992.2667-.0889.4445-.0889.7111-.0889zm-124.8879 183.28753h3.8222c-13.6888 1.5111-25.2443 11.02215-29.5109 24.1776h-7.4666c4.6221-14.3999 18.0443-24.1776 33.1553-24.1776zm-15.0221 0h3.8222c-13.6888 1.5111-25.2443 11.02215-29.5109 24.1776h-7.4667c4.6222-14.3999 18.0444-24.1776 33.1554-24.1776z"/>
	<path d="m-1252.4882 602.40504.089 56.97736c0 20.97762 16.711 37.86639 37.6887 37.95528l138.3989.17776c19.8221 0 31.5554-13.95544 35.3775-25.24425 8-20.88874 20.8888-33.15531 31.1998-39.19971-4.2666 4.5333-16.0888 17.51098-16.0888 39.19971v70.84392h-60.1773c0 4.44441-3.5555 8.08883-7.9999 8.08883h-109.5992c-23.111 0-41.333 18.22209-41.333 41.33302h275.02005c13.8666-12.35546 31.822-19.28874 50.4886-19.28874 18.5776 0 36.6219 6.93328 50.4885 19.28874h56.8884V602.40504h-56.8884v139.7323c-14.0444-20.08874-22.0443-44.26634-22.0443-69.86615 0-24.97759 7.7333-49.33297 22.0443-69.86615zm38.6663 25.6887c10.4 0 20.1777 5.06662 26.0443 13.68879 6.3999 10.31103 4.0888 20.53318 4.0888 24.26648 0-11.02213-8.9777-19.91096-19.9109-19.91096-9.5999 0-15.8221 3.91108-15.8221 13.15546 0 3.0222 1.8666 6.7555 5.3333 6.7555 2.3111 0 4.2666-1.95553 4.2666-4.35552 0-4.5333-4.2666-4.97774-5.7777-3.99997.8889-2.75553 2.0444-3.73331 4.4444-3.73331 5.0666 0 9.1555 4.08887 9.1555 9.15549 0 5.06663-4.0889 9.15549-9.1555 9.15549-3.6444 0-5.8666-1.77777-7.7333-4.26664-.9778-1.42221-2.4-5.77773-4.1777-6.57772-5.6-2.57777-8.3555 6.66661-11.7333 6.66661-1.6 0-6.7555-.0889-7.0222-11.73324.1778 9.7777 3.5556 15.111 8.2667 15.111 2.9333 0 3.3777-6.13329 6.311-6.13329 2.4 0 3.3778 2.2222 4.1778 4.5333 1.7777 9.15549 9.7777 15.99988 19.4665 15.99988 8.7999 0 16.2665-5.77774 18.8443-13.68879v.0889c1.9555-4.08886 2.6666-9.68881 2.6666-12.53324 0-17.51099 14.1333-31.64421 31.6442-31.64421 10.4 0 20.1777 5.06662 26.0443 13.68879 6.3999 10.31103 4.0889 20.53318 4.0889 24.26648 0-11.02213-8.9778-19.91096-19.911-19.91096-9.5999 0-15.8221 3.91108-15.8221 13.15546 0 3.0222 1.8666 6.7555 5.3333 6.7555 2.3111 0 4.2666-1.95553 4.2666-4.35552 0-4.5333-4.2666-4.97774-5.7777-3.99997.8889-2.75553 2.0444-3.73331 4.4444-3.73331 5.0666 0 9.1555 4.08887 9.1555 9.15549 0 5.06663-4.0889 9.15549-9.1555 9.15549-3.6444 0-5.7777-1.77777-7.7333-4.26664-.9778-1.42221-2.4-5.77773-4.1777-6.57772-5.6-2.57777-8.3555 6.66661-11.7333 6.66661-1.6 0-6.6666-.0889-7.0221-11.73324.1777 9.7777 3.5555 15.111 8.2666 15.111 2.9333 0 3.3777-6.13329 6.311-6.13329 2.4 0 3.4667 2.2222 4.1778 4.5333 1.7777 9.15549 9.7777 15.99988 19.4665 15.99988 8.7999 0 16.2665-5.77774 18.9332-13.68879l-.089.0889c1.9555-4.08886 2.6666-9.68881 2.6666-12.53324 0-17.51099 14.1333-31.64421 31.6443-31.64421 10.4888 0 20.2665 5.15551 26.1331 13.86656 6.3111 10.31104 4 20.4443 4 24.08871 0-11.02213-8.8889-19.91096-19.911-19.91096-9.511 0-15.8221 3.91108-15.8221 13.15546 0 3.0222 1.8666 6.7555 5.3333 6.7555 2.3111 0 4.2666-1.95553 4.2666-4.35552 0-4.5333-4.2666-4.97774-5.7777-3.99997.8889-2.75553 2.0444-3.73331 4.4444-3.73331 5.0666 0 9.1555 4.08887 9.1555 9.15549 0 5.06663-4.0889 9.15549-9.1555 9.15549-3.6444 0-5.7777-1.86665-7.7333-4.26664-.9777-1.42221-2.4-5.77773-4.1777-6.57772-5.6-2.57777-8.3555 6.66661-11.7333 6.66661-1.6 0-6.6666-.0889-7.0221-11.73324.1777 9.7777 3.5555 15.111 8.3555 15.111 2.8444 0 3.2888-6.13329 6.2221-6.13329 2.4 0 3.4667 2.2222 4.1778 4.5333 1.7777 9.0666 9.7777 15.99988 19.4665 15.99988 8.7999 0 16.2665-5.77774 18.9332-13.68879l-.089.0889c1.0667-2.66665 6.2222-.7111 5.6 1.77776-3.2889 10.31104-12.9777 17.42209-23.911 17.42209h-137.5101c-17.5109 0-31.6442-14.22211-31.6442-31.73309 0-17.51099 14.1333-31.64421 31.6442-31.64421zm11.5555 132.79901h3.9111c-13.6888 1.5111-25.3332 11.02215-29.5109 24.1776h-7.5555c4.6222-14.39989 18.0443-24.1776 33.1553-24.1776zm15.0221 0h3.9111c-13.6888 1.5111-25.3331 11.02215-29.5109 24.1776h-7.5555c4.6222-14.39989 18.0443-24.1776 33.1553-24.1776z"/>
	<path d="M-806.09165 628.71595v23.11095h75.1995v-23.11095z"/>
	<path d="M-451.51645 349.87358c-1.5111 6.0444 1.5111 11.2888 4.2666 14.39989 4.6222 4.97774 21.9554 7.5555 21.9554 16.44432 0 12.26658-14.2221 16.88877-19.1109 21.15541-4.3556 4.08886-7.1111 9.95548-7.1111 16.44432 0 12.44435 10.0444 22.48873 22.5776 22.48873 12.4444 0 22.48874-10.04438 22.48874-22.48873 0-19.55541-17.95544-27.82202-26.66644-16.79987-.8.88887-1.2445 2.13331-1.2445 3.37775 0 2.93331 2.4 5.33329 5.4222 5.33329 2.9333 0 5.3333-2.39998 5.3333-5.33329 0-.71111-.1778-1.42222-.3555-2.04443 2.311-1.42221 6.5777 1.5111 6.5777 4.44441 0 6.31107-5.2444 11.55547-11.5555 11.55547-6.3999 0-11.5555-5.2444-11.5555-11.55547 0-3.64442 3.6445-8.44438 10.6666-11.55548 6.7555-2.66664 11.8222-5.95551 11.8222-17.59986 0-10.39993-21.6888-10.22215-27.9998-15.99989-2.6667-2.66664-6.2222-4.71107-5.5111-12.26657z"/>
	<path d="M-629.82625 555.64983c-9.5999 0-15.8221 3.91108-15.8221 13.06657 0 3.11109 1.8667 6.75551 5.2444 6.75551 2.4 0 4.3555-1.86665 4.3555-4.26663 0-4.5333-4.2666-4.97775-5.7777-4.08887.8889-2.66664 1.9555-3.64441 4.4444-3.64441 4.9778 0 9.0666 4.08886 9.0666 9.15549 0 4.97773-4.0888 9.0666-9.0666 9.0666-3.7333 0-5.8666-1.77777-7.7333-4.17776-1.0666-1.5111-2.4888-5.77773-4.1777-6.66661-5.6-2.48886-8.3555 6.66661-11.7333 6.66661-1.6888 0-6.7555 0-7.0221-11.64435.1777 9.68882 3.4666 15.111 8.2666 15.111 2.9333 0 3.3777-6.13329 6.311-6.13329 2.3111 0 3.3778 2.22221 4.0889 4.5333v-.0889c1.7778 9.15549 9.8666 16.08878 19.5554 16.08878 10.9333 0 19.8221-8.88884 19.8221-19.91097 0-10.93325-8.8888-19.82208-19.8221-19.82208z"/>
	<path d="M-629.82625 443.384c-9.5999 0-15.8221 3.91108-15.8221 13.15546 0 3.11109 1.8667 6.75551 5.2444 6.75551 2.4 0 4.3555-1.95555 4.3555-4.26665 0-4.62217-4.2666-5.06662-5.7777-4.08885.8889-2.75554 1.9555-3.64441 4.4444-3.64441 4.9778 0 9.0666 4.08885 9.0666 9.0666 0 5.06662-4.0888 9.15547-9.0666 9.15547-3.7333 0-5.8666-1.77775-7.7333-4.17774-1.0666-1.5111-2.4888-5.77773-4.1777-6.66661-5.6-2.57777-8.3555 6.66661-11.7333 6.66661-1.6888 0-6.7555 0-7.0221-11.73324.1777 9.77771 3.4666 15.19988 8.2666 15.19988 2.9333 0 3.3777-6.22217 6.311-6.22217 2.3111 0 3.3778 2.22221 4.0889 4.5333 1.7778 9.15549 9.8666 16.08876 19.5554 16.08876 10.9333 0 19.8221-8.97771 19.8221-19.91095 0-11.02215-8.8888-19.91097-19.8221-19.91097z"/>
	<path d="M-629.82625 499.56136c-9.5999 0-15.8221 3.91109-15.8221 13.06657 0 3.11109 1.8667 6.7555 5.2444 6.7555 2.4 0 4.3555-1.86665 4.3555-4.26663 0-4.5333-4.2666-4.97774-5.7777-3.99997.8889-2.75553 1.9555-3.73331 4.4444-3.73331 4.9778 0 9.0666 4.08886 9.0666 9.15549 0 4.97775-4.0888 9.0666-9.0666 9.0666-3.7333 0-5.8666-1.77776-7.7333-4.17774-1.0666-1.5111-2.4888-5.77774-4.1777-6.57774-5.6-2.57775-8.3555 6.66663-11.7333 6.66663-1.6888 0-6.7555-.0889-7.0221-11.73325.1777 9.68881 3.4666 15.111 8.2666 15.111 2.9333 0 3.3777-6.13329 6.311-6.13329 2.3111 0 3.3778 2.2222 4.0889 4.5333v-.0889c1.7778 9.15549 9.8666 16.08877 19.5554 16.08877 10.9333 0 19.8221-8.88882 19.8221-19.91097 0-10.93324-8.8888-19.82207-19.8221-19.82207z"/>
	<path d="m-806.09165 602.40504 37.5998 21.24429 37.5997-21.24429h-37.5997z"/>
	<path d="m-806.09165 771.29268 37.5998 21.24428 37.5997-21.24428h-37.5997z"/>
	<path d="M-1143.1557 362.94015c13.4221 19.99985 28.1775 41.95525 41.9552 62.57732 3.2889 4.88885 9.9555 6.22218 14.9332 2.93331l11.7333-7.91106c4.9777-3.37775 11.6444-2.04443 14.9332 2.84443v.0889l89.68815 133.59901c0-16.44433 23.1999-34.22197 38.0442-25.6887 35.9108 20.26652 71.8217 40.53303 107.6436 60.79955h55.733c-58.7551 0-90.1327-28.26645-95.0215-36.71084l-67.3773-103.91035c-70.75505-29.51089-141.51005-59.11067-212.26505-88.62156z"/>
	<path d="M-1006.5345 520.80565c-9.5111 0-15.8221 3.91108-15.8221 13.06657 0 3.11108 1.8666 6.7555 5.3333 6.7555 2.4 0 4.2666-1.86665 4.2666-4.26663 0-4.5333-4.1777-5.06663-5.6888-4.08886.8888-2.66665 1.9555-3.64442 4.3555-3.64442 5.0666 0 9.1555 4.08886 9.1555 9.0666 0 5.06664-4.0889 9.15549-9.1555 9.15549-3.6444 0-6.0444-1.77777-7.6444-4.17774-2.3111-3.37776-2.3111-7.11107-4.0889-8.53328-5.1555-3.99997-7.9999 5.24441-11.0221.17778l-23.1109-34.57753c-10.3111.44445-18.0443 2.3111-23.0221-10.22214 1.9556 16.79988 11.9999 19.37763 22.9332 18.1332l22.0443 32.88864c5.511 8.26662 12.1776-13.24434 12.1776 4.26664 0 7.5555 9.1555 15.73322 19.2888 15.73322 11.02205 0 19.91095-8.88882 19.91095-19.91097 0-10.93325-8.8889-19.82207-19.91095-19.82207z"/>
	<path d="M-1038.5343 472.89489c-9.5999 0-15.911 3.91109-15.911 13.15546 0 3.11108 1.9556 6.75551 5.3333 6.75551 2.4 0 4.2667-1.95555 4.2667-4.26664 0-4.62219-4.1778-5.06663-5.6889-4.08885.8889-2.66666 1.9556-3.64442 4.3555-3.64442 5.0667 0 9.1555 4.08885 9.1555 9.0666 0 5.06663-4.0888 9.15548-9.1555 9.15548-3.6444 0-6.0444-1.77776-7.6443-4.17774-2.3111-3.37776-2.3111-7.11107-4.0889-8.53328-5.1555-3.99996-7.9999 5.24441-11.0221.17778l-23.111-34.57752c-10.311.44444-18.0443 2.3111-23.022-10.31104 1.9555 16.88877 11.9999 19.46653 22.9331 18.22209l22.0443 32.79976c5.6 8.35549 12.1777-13.15546 12.1777 4.35552 0 7.5555 9.1555 15.73322 19.3776 15.73322 10.9333 0 19.8221-8.88882 19.8221-19.91096 0-10.93326-8.8888-19.91097-19.8221-19.91097z"/>
	<path d="M-1070.7118 425.07302c-9.5111 0-15.8221 3.91108-15.8221 13.15546 0 3.0222 1.8666 6.75551 5.3333 6.75551 2.4 0 4.2666-1.95554 4.2666-4.35552 0-4.5333-4.1777-4.97775-5.6888-3.99998.8888-2.75553 1.9555-3.7333 4.3555-3.7333 5.0666 0 9.1555 4.08886 9.1555 9.15549 0 5.06662-4.0889 9.15549-9.1555 9.15549-3.6444 0-6.0444-1.77777-7.6444-4.26664-2.3111-3.37775-2.3111-7.02217-4.0889-8.44438-5.1555-3.99997-7.9999 5.24441-11.0221.0889l-54.1329-80.71052c-10.2222.44444-17.9555 2.31109-23.0221-10.22215 1.9556 16.79988 11.9999 19.37764 23.0221 18.1332l52.9774 79.02164c5.511 8.35549 12.1776-13.24434 12.1776 4.35553 0 7.46661 9.1555 15.64433 19.2888 15.64433 11.0221 0 19.911-8.88882 19.911-19.82208 0-11.02214-8.8889-19.91097-19.911-19.91097z"/>
	<path d="M-1133.5558 337.16256c1.9555 16.88876 11.9999 19.46652 22.9332 18.22209l8.9777 13.33323 7.4666 3.19998 168.26535 76.17722 70.0439 107.55475c4.1778 6.48885 33.3331 36.53307 87.3772 36.53307-44.4441 0-77.8661-27.64424-83.3772-36.53307l-67.555-109.33252-184.79865-89.42156-6.311-9.42215c-10.3111.44444-18.0444 2.31109-23.0221-10.31104z"/>
	<path d="M-763.95855 287.20738c-4.8889 4.08885-8.9777 11.46658-9.6888 16.79987-.3556 3.73331 2.1333 11.11103.3555 14.75545-3.9111 7.19994-10.6666 7.19994-10.6666 15.99988 0 13.42212 10.8444 34.48863 10.8444 41.86636 0 8.53327-10.0444 12.71101-15.3777 7.91105-5.3333-5.06663 2.5778-16.44432 2.5778-24.88871 0-7.11106-12.5333-11.55547-5.3333-21.42206-6.8444 3.99997-10.4888 9.95548-7.5555 15.64433 1.7777 3.37775 3.9111 8.88882-.4445 10.93325-4.9777 1.77777-7.911-3.99997-6.8444-12.0888-13.4221 21.1554-5.511 46.39965 10.1333 58.39957 3.2 13.15546 15.0221 21.59984 27.4665 21.59984 12.3554 0 24.2665-8.44438 27.3775-21.59984 15.6444-11.99992 23.5554-37.24417 10.2222-58.39957 1.0667 8.08883-1.9555 13.86657-6.8444 12.0888-4.4444-2.04443-2.2222-7.5555-.5333-10.93325 2.9333-5.68885-.6222-11.64436-7.5555-15.64433 7.1999 9.86659-5.2444 14.311-5.2444 21.42206 0 8.44439 7.911 19.82208 2.4888 24.88871-5.3333 4.79996-15.3776.62222-15.3776-7.91105 0-7.28884 13.0665-28.35535 13.0665-41.06637 0-13.24434-8.711-24.26648-15.1998-31.91087-2.6667-3.55553-3.0222-9.95548 2.1333-16.44432z"/>
	<path d="M-876.57995 792.53696c-23.911-19.91096-65.7773-20.26651-92.0882 5.42218h-276.26455v5.86664h277.33115c25.511-25.95537 61.3329-30.84423 91.0216-11.28882z"/>
  </g>
</svg>