<?xml version="1.0" encoding="UTF-8" standalone="no"?>
<svg
   clip-rule="evenodd"
   fill-rule="evenodd"
   viewBox="0 0 640 400"
   version="1.1"
   id="svg4445"
   sodipodi:docname="chv.svg"
   width="640"
   height="400"
   inkscape:version="1.2.2 (b0a84865, 2022-12-01)"
   xmlns:inkscape="http://www.inkscape.org/namespaces/inkscape"
   xmlns:sodipodi="http://sodipodi.sourceforge.net/DTD/sodipodi-0.dtd"
   xmlns="http://www.w3.org/2000/svg"
   xmlns:svg="http://www.w3.org/2000/svg">
  <defs
	 id="defs4449" />
  <sodipodi:namedview
	 id="namedview4447"
	 pagecolor="#ffffff"
	 bordercolor="#666666"
	 borderopacity="1.0"
	 inkscape:showpageshadow="2"
	 inkscape:pageopacity="0.0"
	 inkscape:pagecheckerboard="0"
	 inkscape:deskcolor="#d1d1d1"
	 showgrid="false"
	 inkscape:zoom="1.4975"
	 inkscape:cx="307.51252"
	 inkscape:cy="200.66778"
	 inkscape:window-width="1440"
	 inkscape:window-height="847"
	 inkscape:window-x="0"
	 inkscape:window-y="25"
	 inkscape:window-maximized="0"
	 inkscape:current-layer="svg4445" />
  <g
	 id="g30130">
	<rect
	   width="640"
	   height="400"
	   fill="#ffdf00"
	   id="rect4427"
	   x="0"
	   y="0"
	   style="stroke-width:0.32" />
	<path
	   d="m 412.768,75.4656 18.1024,-18.1024 v 18.1024 h 18.1024 l -18.1024,18.1024 18.1024,18.1024 h -18.1024 v 18.0992 L 412.768,111.6672 394.6688,129.7696 V 111.6672 H 376.5664 L 394.6688,93.568 376.5664,75.4656 h 18.0992 V 57.3632 Z m -11.7024,6.4 V 72.8128 L 412.768,84.5152 424.4704,72.816 v 9.0496 h 9.0528 L 421.8208,93.568 433.52,105.2672 h -9.0496 V 114.32 L 412.768,102.6176 401.0656,114.32 v -9.0528 H 392.016 L 403.7184,93.568 392.016,81.8656 Z"
	   fill="#a2260b"
	   id="path4429"
	   style="stroke-width:0.32" />
	<path
	   d="m 227.2192,75.4656 18.1024,-18.1024 v 18.1024 h 18.1024 l -18.1024,18.1024 18.1024,18.1024 -18.1024,-0.003 0.003,18.1024 -18.1024,-18.1024 -18.1024,18.1024 V 111.6672 H 191.0176 L 209.12,93.5648 191.0176,75.4624 H 209.12 V 57.3632 Z m -11.7024,6.3968 v -9.0496 l 11.7024,11.7024 11.7024,-11.7024 v 9.0496 h 9.0528 l -11.7024,11.7024 11.6992,11.7024 h -9.0496 v 9.0496 L 227.2224,102.6176 215.5168,114.32 v -9.0528 h -9.0464 L 218.1696,93.5648 206.4672,81.8624 Z"
	   fill="#a2260b"
	   id="path4431"
	   style="stroke-width:0.32" />
	<path
	   d="m 320,36.96 18.0992,-18.1024 0.003,18.1024 h 18.0992 l -18.0992,18.1024 18.1024,18.1024 -18.1024,-0.0032 V 91.264 L 320,73.1616 301.8976,91.264 V 73.1616 H 283.7984 L 301.8976,55.0592 283.7952,36.9568 301.8976,36.96 V 18.8576 Z m -11.7024,6.3968 V 34.3072 L 320,46.0096 331.6992,34.3072 v 9.0496 h 9.0528 l -11.7024,11.7024 11.7024,11.7024 h -9.0528 v 9.0496 L 320,64.112 308.2976,75.8144 V 66.7616 H 299.248 L 310.9472,55.0592 299.2448,43.3568 Z"
	   fill="#a2260b"
	   id="path4433"
	   style="stroke-width:0.32" />
	<polygon
	   points="1190.9,617.69 1162.6,645.97 1148.5,631.83 1162.6,617.69 1141.4,596.48 1106.1,631.83 1169.7,695.47 1212.1,653.05 1212.1,596.48 1141.4,525.77 1035,632.19 1035,970 2000,970 2000,940 1065,940 1065,644.61 1141.4,568.19 "
	   fill="#a2260b"
	   id="polygon4435"
	   transform="scale(0.32)" />
	<polygon
	   points="809.08,617.69 837.37,645.97 851.51,631.83 837.37,617.69 858.58,596.48 893.93,631.83 830.29,695.47 787.87,653.05 787.87,596.47 858.58,525.76 965,632.19 965,970 0,970 0,940 935,940 935,644.61 858.58,568.19 "
	   fill="#a2260b"
	   id="polygon4437"
	   transform="scale(0.32)" />
	<polygon
	   points="773.73,511.62 752.52,490.41 787.87,455.05 844.44,511.62 794.94,561.12 738.38,561.12 667.66,490.41 752.52,405.56 809.09,405.56 965,561.47 965,603.9 787.87,426.77 724.23,490.41 773.73,539.91 802.01,511.62 787.87,497.48 "
	   fill="#a2260b"
	   id="polygon4439"
	   transform="scale(0.32)" />
	<polygon
	   points="1226.3,511.62 1247.5,490.41 1212.1,455.05 1155.6,511.62 1205.1,561.12 1261.6,561.12 1332.3,490.41 1247.5,405.56 1190.9,405.56 1035,561.47 1035,603.9 1212.1,426.77 1275.8,490.41 1226.3,539.91 1198,511.62 1212.1,497.48 "
	   fill="#a2260b"
	   id="polygon4441"
	   transform="scale(0.32)" />
	<polygon
	   points="978.79,377.27 929.29,426.77 872.72,370.2 908.08,334.85 929.29,356.06 915.15,370.2 929.29,384.34 957.57,356.06 908.08,306.56 844.44,370.2 1000,525.76 1155.6,370.2 1091.9,306.56 1042.4,356.06 1070.7,384.34 1084.8,370.2 1070.7,356.06 1091.9,334.85 1127.3,370.2 1070.7,426.77 1021.2,377.27 1021.2,320.71 1091.9,250 1176.8,334.85 1176.8,391.42 1015,553.19 1015,1000 2000,1000 2000,1250 0,1250 0,1000 985,1000 985,553.19 823.23,391.42 823.23,334.85 908.08,250 978.79,320.71 "
	   fill="#a2260b"
	   id="polygon4443"
	   transform="scale(0.32)" />
  </g>
</svg>
