<?xml version="1.0" encoding="UTF-8" standalone="no"?>
<svg
   width="600.73828"
   height="400"
   viewBox="0 0 600.73828 400"
   version="1.1"
   id="svg13598"
   sodipodi:docname="sah.svg"
   inkscape:version="1.2.2 (b0a84865, 2022-12-01)"
   xmlns:inkscape="http://www.inkscape.org/namespaces/inkscape"
   xmlns:sodipodi="http://sodipodi.sourceforge.net/DTD/sodipodi-0.dtd"
   xmlns="http://www.w3.org/2000/svg"
   xmlns:svg="http://www.w3.org/2000/svg">
  <defs
	 id="defs13602" />
  <sodipodi:namedview
	 id="namedview13600"
	 pagecolor="#ffffff"
	 bordercolor="#666666"
	 borderopacity="1.0"
	 inkscape:showpageshadow="2"
	 inkscape:pageopacity="0.0"
	 inkscape:pagecheckerboard="0"
	 inkscape:deskcolor="#d1d1d1"
	 showgrid="false"
	 inkscape:zoom="1.4975"
	 inkscape:cx="300.16695"
	 inkscape:cy="200"
	 inkscape:window-width="1440"
	 inkscape:window-height="819"
	 inkscape:window-x="0"
	 inkscape:window-y="25"
	 inkscape:window-maximized="0"
	 inkscape:current-layer="svg13598" />
  <g
	 id="g17833"
	 transform="scale(0.18399256)">
	<path
	   d="m 0,1838.001 v 68 l 1632.25,-0.251 1632.25,-0.25 0.257,-68 0.257,-68 -1632.507,0.251 L 0,1770.001 v 68 M 0.473,1838 c 0,37.675 0.124,53.088 0.277,34.25 0.152,-18.838 0.152,-49.662 0,-68.5 -0.153,-18.838 -0.277,-3.425 -0.277,34.25"
	   stroke="none"
	   fill="#ff1c00"
	   fill-rule="evenodd"
	   id="path13590" />
	<path
	   d="m 0,2040.001 v 134 l 1632.25,-0.251 1632.25,-0.25 0.254,-134 0.253,-134 -1632.503,0.251 L 0,1906.001 v 134 M 0.486,2040 c 0,73.975 0.119,104.237 0.264,67.25 0.145,-36.988 0.145,-97.513 0,-134.5 -0.145,-36.988 -0.264,-6.725 -0.264,67.25"
	   stroke="none"
	   fill="#009a00"
	   fill-rule="evenodd"
	   id="path13592" />
	<path
	   d="m 0,817 v 817.001 l 1632.25,-0.251 1632.25,-0.25 0.251,-816.75 L 3265.001,0 H 1632.501 0 v 817 m 0.498,0.5 c 0,449.35 0.113,633.325 0.252,408.832 0.139,-224.492 0.139,-592.142 0,-817 C 0.611,184.475 0.498,368.15 0.498,817.5 M 1607,375.074 c -98.807,5.741 -193.496,44.785 -267.443,110.278 -52.826,46.788 -94.546,106.712 -119.501,171.648 -16.275,42.346 -24.94,80.996 -28.587,127.5 -5.319,67.823 6.059,138.384 32.626,202.317 48.851,117.564 147.786,209.632 268.405,249.776 14.504,4.827 33.57,10.186 44,12.368 15.125,3.163 32.066,5.923 50.5,8.227 14.215,1.776 76.678,1.785 91,0.013 59.661,-7.383 104.412,-20.654 154,-45.671 121.115,-61.102 208.563,-176.998 233.929,-310.03 6.606,-34.64 7.562,-45.32 7.567,-84.5 0,-36.845 -0.588,-44.459 -5.989,-77 -1.88,-11.327 -2.67,-14.905 -7.617,-34.5 -27.309,-108.162 -97.91,-204.199 -194.33,-264.342 -15.545,-9.697 -40.868,-23.188 -55.56,-29.601 -38.752,-16.915 -79.849,-28.242 -121.5,-33.487 -29.123,-3.667 -54.131,-4.586 -81.5,-2.996"
	   stroke="none"
	   fill="#089aff"
	   fill-rule="evenodd"
	   id="path13594" />
	<path
	   d="m 1607,375.074 c -98.807,5.741 -193.496,44.785 -267.443,110.278 -52.826,46.788 -94.546,106.712 -119.501,171.648 -16.275,42.346 -24.94,80.996 -28.587,127.5 -5.319,67.823 6.059,138.384 32.626,202.317 48.851,117.564 147.786,209.632 268.405,249.776 14.504,4.827 33.57,10.186 44,12.368 15.125,3.163 32.066,5.923 50.5,8.227 14.215,1.776 76.678,1.785 91,0.013 59.661,-7.383 104.412,-20.654 154,-45.671 121.115,-61.102 208.563,-176.998 233.929,-310.03 6.606,-34.64 7.562,-45.32 7.567,-84.5 0,-36.845 -0.588,-44.459 -5.989,-77 -1.88,-11.327 -2.67,-14.905 -7.617,-34.5 -27.309,-108.162 -97.91,-204.199 -194.33,-264.342 -15.545,-9.697 -40.868,-23.188 -55.56,-29.601 -38.752,-16.915 -79.849,-28.242 -121.5,-33.487 -29.123,-3.667 -54.131,-4.586 -81.5,-2.996 M 0,1702.001 v 68 l 1632.25,-0.251 1632.25,-0.25 0.257,-68 0.257,-68 -1632.507,0.251 L 0,1634.001 v 68 M 0.473,1702 c 0,37.675 0.124,53.088 0.277,34.25 0.152,-18.838 0.152,-49.662 0,-68.5 -0.153,-18.838 -0.277,-3.425 -0.277,34.25"
	   stroke="none"
	   fill="#ffffff"
	   fill-rule="evenodd"
	   id="path13596" />
  </g>
</svg>
