<?xml version="1.0" encoding="UTF-8" standalone="no"?>
<svg
   width="600.84113"
   height="400"
   viewBox="0 0 600.84113 400"
   version="1.1"
   id="svg4471"
   sodipodi:docname="kaa.svg"
   inkscape:version="1.2.2 (b0a84865, 2022-12-01)"
   xmlns:inkscape="http://www.inkscape.org/namespaces/inkscape"
   xmlns:sodipodi="http://sodipodi.sourceforge.net/DTD/sodipodi-0.dtd"
   xmlns="http://www.w3.org/2000/svg"
   xmlns:svg="http://www.w3.org/2000/svg">
  <defs
	 id="defs4475" />
  <sodipodi:namedview
	 id="namedview4473"
	 pagecolor="#ffffff"
	 bordercolor="#666666"
	 borderopacity="1.0"
	 inkscape:showpageshadow="2"
	 inkscape:pageopacity="0.0"
	 inkscape:pagecheckerboard="0"
	 inkscape:deskcolor="#d1d1d1"
	 showgrid="false"
	 inkscape:zoom="1.5675"
	 inkscape:cx="300.1595"
	 inkscape:cy="200"
	 inkscape:window-width="1440"
	 inkscape:window-height="847"
	 inkscape:window-x="0"
	 inkscape:window-y="25"
	 inkscape:window-maximized="0"
	 inkscape:current-layer="svg4471" />
  <g
	 id="g4538"
	 transform="matrix(0.18399256,0,0,0.18399256,0.09199628,0)">
	<path
	   d="m 0,1810.501 v 363.5 l 1632.25,-0.251 1632.25,-0.25 0.251,-363.5 0.252,-363.5 -1632.502,0.251 L 0,1447.001 v 363.5 m 0.495,-10e-4 c 0,200.2 0.115,281.951 0.255,181.669 0.14,-100.283 0.14,-264.083 0,-364 C 0.61,1528.251 0.495,1610.3 0.495,1810.5"
	   stroke="none"
	   fill="#1a9d37"
	   fill-rule="evenodd"
	   id="path4461" />
	<path
	   d="M 0,366 V 732.001 L 1632.25,731.75 3264.5,731.5 3264.751,365.75 3265.003,0 H 1632.501 0 v 366 m 0.495,0.5 c 0,201.3 0.115,283.501 0.255,182.669 0.14,-100.833 0.14,-265.533 0,-366 C 0.61,82.701 0.495,165.2 0.495,366.5 M 528,174.628 c -33.236,2.25 -66.84,13.557 -94,31.63 -39.645,26.381 -70.292,70.158 -80.327,114.742 -3.138,13.942 -3.682,17.499 -4.748,31.074 -3.105,39.508 7.287,81.539 28.5,115.276 35.448,56.375 95.472,89.812 161.575,90.006 22.326,0.065 39.842,-2.648 61,-9.451 10.901,-3.505 38,-16.357 38,-18.023 0,-0.72 -0.973,-0.866 -2.75,-0.412 -1.513,0.387 -11.373,0.937 -21.912,1.221 -15.364,0.415 -21.202,0.175 -29.462,-1.212 -52.708,-8.851 -95.854,-39.795 -120.757,-86.606 -33.601,-63.159 -22.054,-141.457 28.381,-192.459 6.05,-6.118 14.683,-13.839 19.185,-17.157 21.414,-15.782 46.308,-26.319 72.439,-30.659 10.586,-1.758 41.105,-2.151 48.876,-0.63 6.855,1.342 6.77,-0.274 -0.21,-4.043 -27.293,-14.737 -54.617,-22.178 -85.29,-23.225 -7.15,-0.244 -15.475,-0.276 -18.5,-0.072 M 902.029,300.25 c -0.511,1.238 -4.823,14.288 -9.583,29 L 883.793,356 h -30.397 c -23.665,0 -30.39,0.277 -30.368,1.25 0.016,0.688 10.816,9.058 24,18.601 13.185,9.543 23.972,17.929 23.972,18.635 0,0.706 -1.973,7.298 -4.384,14.649 -3.912,11.927 -11.114,34.334 -13.104,40.766 -0.618,1.999 -0.457,2.292 0.959,1.748 0.937,-0.359 12.224,-8.338 25.083,-17.73 15.102,-11.032 23.834,-16.808 24.663,-16.315 0.706,0.419 11.699,8.33 24.431,17.579 12.731,9.249 23.634,16.817 24.228,16.817 0.724,0 0.781,-0.742 0.17,-2.25 -0.501,-1.238 -4.345,-13.05 -8.542,-26.25 -4.197,-13.2 -8.113,-25.252 -8.702,-26.782 -0.589,-1.53 -0.898,-2.926 -0.687,-3.101 0.212,-0.176 9.835,-7.203 21.385,-15.617 11.55,-8.413 22.462,-16.378 24.25,-17.699 1.788,-1.322 3.25,-2.823 3.25,-3.337 0,-0.554 -12.538,-1.043 -30.75,-1.2 L 922.5,355.5 920.33,349 c -1.193,-3.575 -5.405,-16.512 -9.36,-28.75 -3.955,-12.238 -7.375,-22.25 -7.602,-22.25 -0.226,0 -0.829,1.012 -1.339,2.25 m 177.859,1.5 c -0.585,1.512 -2.57,7.475 -4.412,13.25 -1.841,5.775 -5.548,17.25 -8.237,25.5 l -4.889,15 -30.753,0.265 c -23.867,0.205 -30.663,0.541 -30.35,1.5 0.222,0.679 5.095,4.653 10.829,8.831 31.642,23.055 36.453,26.759 36.755,28.297 0.265,1.352 -6.841,24.471 -16.325,53.107 -0.728,2.2 -0.959,4.136 -0.512,4.301 0.741,0.275 28.335,-19.224 43.141,-30.484 4.791,-3.643 6.46,-4.426 7.737,-3.626 0.895,0.561 12.184,8.717 25.085,18.124 12.901,9.408 23.636,16.925 23.855,16.706 0.219,-0.219 -3.699,-12.957 -8.707,-28.307 -5.008,-15.349 -9.105,-28.629 -9.105,-29.51 0,-0.943 9.85,-8.715 23.96,-18.903 13.178,-9.515 23.978,-17.857 24,-18.537 0.031,-0.949 -7.055,-1.296 -30.567,-1.5 l -30.607,-0.264 -4.703,-14.5 c -2.586,-7.975 -6.696,-20.687 -9.132,-28.25 -2.437,-7.562 -4.784,-13.75 -5.215,-13.75 -0.432,0 -1.264,1.238 -1.848,2.75 M 804.682,429.258 c -4.819,14.983 -9.131,27.917 -9.581,28.742 -0.694,1.273 -5.385,1.54 -30.96,1.765 -23.127,0.203 -30.136,0.552 -30.12,1.5 0.012,0.679 1.925,2.559 4.25,4.177 12.089,8.41 43.729,31.883 43.729,32.441 0,0.355 -2.701,8.964 -6.003,19.131 -10.468,32.233 -12.239,38.077 -11.704,38.612 0.467,0.467 19.64,-13 41.044,-28.83 4.31,-3.188 8.222,-5.796 8.694,-5.796 0.471,0 11.72,7.912 24.997,17.582 13.277,9.671 24.41,17.313 24.74,16.983 0.33,-0.33 -0.347,-3.404 -1.504,-6.832 C 858.283,536.94 846,498.486 846,497.815 c 0,-0.369 7.087,-5.79 15.75,-12.046 8.663,-6.256 19.446,-14.051 23.964,-17.322 4.518,-3.271 8.231,-6.509 8.25,-7.197 0.028,-0.973 -6.663,-1.25 -30.221,-1.25 h -30.258 l -7.224,-22.25 c -3.973,-12.238 -7.98,-24.725 -8.905,-27.75 -3.139,-10.269 -3.21,-10.16 -12.674,19.258 M 991,403.19 c 0,0.655 -4.078,13.705 -9.062,29 L 972.876,460 h -30.521 c -23.973,0 -30.432,0.268 -30.106,1.25 0.229,0.688 6.229,5.44 13.334,10.562 25.893,18.666 34.417,25.264 34.417,26.639 0,1.292 -6.248,21.071 -14.663,46.413 -1.893,5.701 -3.184,10.622 -2.869,10.937 0.314,0.315 3.014,-1.199 5.999,-3.364 C 984.623,526.213 991.92,521 992.474,521 c 0.354,0 8.529,5.737 18.165,12.75 31.633,23.02 30.834,22.487 31.181,20.818 0.177,-0.845 -3.769,-14.001 -8.767,-29.235 -4.998,-15.234 -8.743,-28.011 -8.32,-28.393 0.422,-0.382 7.517,-5.538 15.767,-11.458 24.428,-17.528 32.5,-23.631 32.5,-24.568 0,-0.488 -13.722,-1.004 -30.613,-1.15 l -30.612,-0.264 -4.26,-13 c -2.343,-7.15 -6.142,-18.85 -8.442,-26 -2.3,-7.15 -4.662,-14.238 -5.249,-15.75 -1.08,-2.783 -2.824,-3.747 -2.824,-1.56 m 170.551,25.466 c -4.763,14.764 -9.076,27.856 -9.584,29.094 l -0.924,2.25 h -30.605 c -18.799,0 -30.476,0.365 -30.271,0.946 0.374,1.06 9.851,8.198 33.083,24.916 8.662,6.233 15.75,11.478 15.75,11.655 0,0.344 -7.527,23.667 -14.517,44.983 -2.345,7.15 -4.102,13.173 -3.904,13.385 0.526,0.566 3.65,-1.584 27.789,-19.121 12.027,-8.738 22.422,-15.675 23.099,-15.415 0.676,0.259 11.911,8.199 24.965,17.644 13.055,9.445 23.965,16.943 24.245,16.663 0.28,-0.28 -3.33,-12.355 -8.023,-26.833 -4.692,-14.477 -8.816,-27.493 -9.163,-28.922 -0.592,-2.435 0.754,-3.616 21.188,-18.592 12.002,-8.795 22.834,-16.621 24.071,-17.391 1.237,-0.769 2.25,-1.966 2.25,-2.659 0,-0.984 -6.6,-1.259 -30.275,-1.259 h -30.275 l -2.635,-7.75 c -1.449,-4.262 -5.626,-16.975 -9.282,-28.25 -3.656,-11.275 -7.023,-20.88 -7.484,-21.344 -0.46,-0.464 -4.734,11.236 -9.498,26"
	   stroke="none"
	   fill="#008fb8"
	   fill-rule="evenodd"
	   id="path4463" />
	<path
	   d="m 1631.45,749.75 c 897.572,0.138 1632.287,-0.087 1632.7,-0.5 0.412,-0.412 -733.965,-0.525 -1631.95,-0.25 l -1632.7,0.5 1631.95,0.25 M 0,1089.001 v 296 l 1632.25,-0.251 1632.25,-0.25 0.252,-296 0.251,-296 -1632.501,0.251 L 0,793.001 v 296 M 0.493,1089 c 0,163.075 0.116,229.787 0.257,148.25 0.141,-81.538 0.141,-214.963 0,-296.5 C 0.609,859.212 0.493,925.925 0.493,1089 m 1630.957,340.75 c 897.572,0.138 1632.287,-0.087 1632.7,-0.5 0.412,-0.412 -733.965,-0.525 -1631.95,-0.25 l -1632.7,0.5 1631.95,0.25 m 0,17 c 897.572,0.138 1632.287,-0.087 1632.7,-0.5 0.412,-0.412 -733.965,-0.525 -1631.95,-0.25 l -1632.7,0.5 1631.95,0.25"
	   stroke="none"
	   fill="#f7be24"
	   fill-rule="evenodd"
	   id="path4465" />
	<path
	   d="m 0,771.501 v 21.5 l 1632.25,-0.251 1632.25,-0.25 0.269,-21.5 0.269,-21.5 -1632.519,0.251 L 0,750.001 v 21.5 M 0.426,771.5 c 0.001,12.1 0.145,16.913 0.321,10.695 0.176,-6.218 0.175,-16.118 -0.001,-22 C 0.569,754.313 0.425,759.4 0.426,771.5 M 0,1407.001 v 22 l 1632.25,-0.251 1632.25,-0.25 0.268,-22 0.269,-22 -1632.519,0.251 L 0,1385.001 v 22 M 0.428,1407 c 0,12.375 0.143,17.438 0.319,11.25 0.175,-6.187 0.175,-16.312 0,-22.5 -0.176,-6.187 -0.319,-1.125 -0.319,11.25"
	   stroke="none"
	   fill="#db2016"
	   fill-rule="evenodd"
	   id="path4467" />
	<path
	   d="m 528,174.628 c -33.236,2.25 -66.84,13.557 -94,31.63 -39.645,26.381 -70.292,70.158 -80.327,114.742 -3.138,13.942 -3.682,17.499 -4.748,31.074 -3.105,39.508 7.287,81.539 28.5,115.276 35.448,56.375 95.472,89.812 161.575,90.006 22.326,0.065 39.842,-2.648 61,-9.451 10.901,-3.505 38,-16.357 38,-18.023 0,-0.72 -0.973,-0.866 -2.75,-0.412 -1.513,0.387 -11.373,0.937 -21.912,1.221 -15.364,0.415 -21.202,0.175 -29.462,-1.212 -52.708,-8.851 -95.854,-39.795 -120.757,-86.606 -33.601,-63.159 -22.054,-141.457 28.381,-192.459 6.05,-6.118 14.683,-13.839 19.185,-17.157 21.414,-15.782 46.308,-26.319 72.439,-30.659 10.586,-1.758 41.105,-2.151 48.876,-0.63 6.855,1.342 6.77,-0.274 -0.21,-4.043 -27.293,-14.737 -54.617,-22.178 -85.29,-23.225 -7.15,-0.244 -15.475,-0.276 -18.5,-0.072 M 902.029,300.25 c -0.511,1.238 -4.823,14.288 -9.583,29 L 883.793,356 h -30.397 c -23.665,0 -30.39,0.277 -30.368,1.25 0.016,0.688 10.816,9.058 24,18.601 13.185,9.543 23.972,17.929 23.972,18.635 0,0.706 -1.973,7.298 -4.384,14.649 -3.912,11.927 -11.114,34.334 -13.104,40.766 -0.618,1.999 -0.457,2.292 0.959,1.748 0.937,-0.359 12.224,-8.338 25.083,-17.73 15.102,-11.032 23.834,-16.808 24.663,-16.315 0.706,0.419 11.699,8.33 24.431,17.579 12.731,9.249 23.634,16.817 24.228,16.817 0.724,0 0.781,-0.742 0.17,-2.25 -0.501,-1.238 -4.345,-13.05 -8.542,-26.25 -4.197,-13.2 -8.113,-25.252 -8.702,-26.782 -0.589,-1.53 -0.898,-2.926 -0.687,-3.101 0.212,-0.176 9.835,-7.203 21.385,-15.617 11.55,-8.413 22.462,-16.378 24.25,-17.699 1.788,-1.322 3.25,-2.823 3.25,-3.337 0,-0.554 -12.538,-1.043 -30.75,-1.2 L 922.5,355.5 920.33,349 c -1.193,-3.575 -5.405,-16.512 -9.36,-28.75 -3.955,-12.238 -7.375,-22.25 -7.602,-22.25 -0.226,0 -0.829,1.012 -1.339,2.25 m 177.859,1.5 c -0.585,1.512 -2.57,7.475 -4.412,13.25 -1.841,5.775 -5.548,17.25 -8.237,25.5 l -4.889,15 -30.753,0.265 c -23.867,0.205 -30.663,0.541 -30.35,1.5 0.222,0.679 5.095,4.653 10.829,8.831 31.642,23.055 36.453,26.759 36.755,28.297 0.265,1.352 -6.841,24.471 -16.325,53.107 -0.728,2.2 -0.959,4.136 -0.512,4.301 0.741,0.275 28.335,-19.224 43.141,-30.484 4.791,-3.643 6.46,-4.426 7.737,-3.626 0.895,0.561 12.184,8.717 25.085,18.124 12.901,9.408 23.636,16.925 23.855,16.706 0.219,-0.219 -3.699,-12.957 -8.707,-28.307 -5.008,-15.349 -9.105,-28.629 -9.105,-29.51 0,-0.943 9.85,-8.715 23.96,-18.903 13.178,-9.515 23.978,-17.857 24,-18.537 0.031,-0.949 -7.055,-1.296 -30.567,-1.5 l -30.607,-0.264 -4.703,-14.5 c -2.586,-7.975 -6.696,-20.687 -9.132,-28.25 -2.437,-7.562 -4.784,-13.75 -5.215,-13.75 -0.432,0 -1.264,1.238 -1.848,2.75 M 804.682,429.258 c -4.819,14.983 -9.131,27.917 -9.581,28.742 -0.694,1.273 -5.385,1.54 -30.96,1.765 -23.127,0.203 -30.136,0.552 -30.12,1.5 0.012,0.679 1.925,2.559 4.25,4.177 12.089,8.41 43.729,31.883 43.729,32.441 0,0.355 -2.701,8.964 -6.003,19.131 -10.468,32.233 -12.239,38.077 -11.704,38.612 0.467,0.467 19.64,-13 41.044,-28.83 4.31,-3.188 8.222,-5.796 8.694,-5.796 0.471,0 11.72,7.912 24.997,17.582 13.277,9.671 24.41,17.313 24.74,16.983 0.33,-0.33 -0.347,-3.404 -1.504,-6.832 C 858.283,536.94 846,498.486 846,497.815 c 0,-0.369 7.087,-5.79 15.75,-12.046 8.663,-6.256 19.446,-14.051 23.964,-17.322 4.518,-3.271 8.231,-6.509 8.25,-7.197 0.028,-0.973 -6.663,-1.25 -30.221,-1.25 h -30.258 l -7.224,-22.25 c -3.973,-12.238 -7.98,-24.725 -8.905,-27.75 -3.139,-10.269 -3.21,-10.16 -12.674,19.258 M 991,403.19 c 0,0.655 -4.078,13.705 -9.062,29 L 972.876,460 h -30.521 c -23.973,0 -30.432,0.268 -30.106,1.25 0.229,0.688 6.229,5.44 13.334,10.562 25.893,18.666 34.417,25.264 34.417,26.639 0,1.292 -6.248,21.071 -14.663,46.413 -1.893,5.701 -3.184,10.622 -2.869,10.937 0.314,0.315 3.014,-1.199 5.999,-3.364 C 984.623,526.213 991.92,521 992.474,521 c 0.354,0 8.529,5.737 18.165,12.75 31.633,23.02 30.834,22.487 31.181,20.818 0.177,-0.845 -3.769,-14.001 -8.767,-29.235 -4.998,-15.234 -8.743,-28.011 -8.32,-28.393 0.422,-0.382 7.517,-5.538 15.767,-11.458 24.428,-17.528 32.5,-23.631 32.5,-24.568 0,-0.488 -13.722,-1.004 -30.613,-1.15 l -30.612,-0.264 -4.26,-13 c -2.343,-7.15 -6.142,-18.85 -8.442,-26 -2.3,-7.15 -4.662,-14.238 -5.249,-15.75 -1.08,-2.783 -2.824,-3.747 -2.824,-1.56 m 170.551,25.466 c -4.763,14.764 -9.076,27.856 -9.584,29.094 l -0.924,2.25 h -30.605 c -18.799,0 -30.476,0.365 -30.271,0.946 0.374,1.06 9.851,8.198 33.083,24.916 8.662,6.233 15.75,11.478 15.75,11.655 0,0.344 -7.527,23.667 -14.517,44.983 -2.345,7.15 -4.102,13.173 -3.904,13.385 0.526,0.566 3.65,-1.584 27.789,-19.121 12.027,-8.738 22.422,-15.675 23.099,-15.415 0.676,0.259 11.911,8.199 24.965,17.644 13.055,9.445 23.965,16.943 24.245,16.663 0.28,-0.28 -3.33,-12.355 -8.023,-26.833 -4.692,-14.477 -8.816,-27.493 -9.163,-28.922 -0.592,-2.435 0.754,-3.616 21.188,-18.592 12.002,-8.795 22.834,-16.621 24.071,-17.391 1.237,-0.769 2.25,-1.966 2.25,-2.659 0,-0.984 -6.6,-1.259 -30.275,-1.259 h -30.275 l -2.635,-7.75 c -1.449,-4.262 -5.626,-16.975 -9.282,-28.25 -3.656,-11.275 -7.023,-20.88 -7.484,-21.344 -0.46,-0.464 -4.734,11.236 -9.498,26 M 0,740.501 v 8.5 l 1632.25,-0.251 1632.25,-0.25 0.285,-8.5 0.286,-8.5 -1632.536,0.251 L 0,732.001 v 8.5 m 0,697.5 v 8 l 1632.25,-0.251 1632.25,-0.25 0.286,-8 0.287,-8 -1632.537,0.251 L 0,1430.001 v 8"
	   stroke="none"
	   fill="#ffffff"
	   fill-rule="evenodd"
	   id="path4469" />
  </g>
</svg>
