<?xml version="1.0" encoding="UTF-8" standalone="no"?>
<svg
   width="150.23318"
   height="100"
   version="1.1"
   id="svg10427"
   sodipodi:docname="ce.svg"
   inkscape:version="1.2.2 (b0a84865, 2022-12-01)"
   xmlns:inkscape="http://www.inkscape.org/namespaces/inkscape"
   xmlns:sodipodi="http://sodipodi.sourceforge.net/DTD/sodipodi-0.dtd"
   xmlns:xlink="http://www.w3.org/1999/xlink"
   xmlns="http://www.w3.org/2000/svg"
   xmlns:svg="http://www.w3.org/2000/svg">
  <defs
	 id="defs10431" />
  <sodipodi:namedview
	 id="namedview10429"
	 pagecolor="#ffffff"
	 bordercolor="#666666"
	 borderopacity="1.0"
	 inkscape:showpageshadow="2"
	 inkscape:pageopacity="0.0"
	 inkscape:pagecheckerboard="0"
	 inkscape:deskcolor="#d1d1d1"
	 showgrid="false"
	 inkscape:zoom="6.27"
	 inkscape:cx="75.039872"
	 inkscape:cy="50"
	 inkscape:window-width="1440"
	 inkscape:window-height="847"
	 inkscape:window-x="0"
	 inkscape:window-y="25"
	 inkscape:window-maximized="1"
	 inkscape:current-layer="svg10427" />
  <g
	 id="g10614"
	 transform="scale(0.33311126)">
	<path
	   d="M 0,0 H 450 V 300 H 0"
	   fill="#ffffff"
	   id="path10408" />
	<path
	   d="m 42,204.2 h 409 v 96 H 42"
	   fill="#da251d"
	   id="path10410" />
	<path
	   d="M 42,0 H 451 V 177.2 H 42"
	   fill="#2b7338"
	   id="path10412" />
	<g
	   transform="translate(-0.58443)"
	   stroke="#ffcc00"
	   stroke-width="2"
	   id="g10425">
	  <g
		 id="b"
		 transform="matrix(1,0,0,1.0034,-97.476,-4.4877)">
		<path
		   d="m 119.74,90.025 c -3.6,0.9 -5.6,5.4 -3,9.3 2.9,4.5 9.6,4.2 13,-0.5 3.4,-4.7 1.7,-11.2 -2.6,-15.2 -5.3,-4.9 -14.2,-4 -18.4,2.9 -5.2,8.7 -1,18.2 4.8,24.9 l 10.7,10.5 c 5.8,6.7 10.1,16.2 4.8,24.9 -4.1,6.9 -13,7.9 -18.2,3.1 -4.4,-4.1 -6.1,-10.5 -2.7,-15.2 3.4,-4.7 10.1,-5 13,-0.5 2.5,3.9 0.6,8.4 -3,9.3"
		   fill="none"
		   stroke="#ffcc00"
		   stroke-linecap="round"
		   stroke-width="3.9866"
		   id="path10414" />
	  </g>
	  <g
		 fill="none"
		 id="g10423">
		<use
		   transform="matrix(1,0,0,1.0087,2.8738e-7,-77.634)"
		   y="150"
		   width="100%"
		   height="100%"
		   stroke="#ffcc00"
		   stroke-width="3.9654"
		   xlink:href="#b"
		   id="use10417" />
		<path
		   d="m 22.083,11.6 c -3.6,0.90302 -5.6,5.4181 -3,9.3312 2.9,4.5151 9.6,4.2141 13,-0.50168 3.4,-4.7158 1.7,-11.238 -2.6,-15.251 -5.3,-4.9165 -14.2,-4.0134 -18.4,2.9097 -5.2,8.7292 -1,18.261 4.8,24.984 l 10.7,10.535 c 5.8,6.7225 10.1,16.254 4.8,24.984 -4.1,6.9232 -13,7.9266 -18.2,3.1104 -4.4,-4.1138 -6.1,-10.535 -2.7,-15.251 3.4,-4.7158 10.1,-5.0168 13,-0.50168 2.5,3.9131 0.6,8.4282 -3,9.3312"
		   stroke="#ffcc00"
		   stroke-linecap="round"
		   stroke-width="4.0067"
		   id="path10419" />
		<path
		   d="m 22.643,234.89 c -3.6,0.90302 -5.6,5.4181 -3,9.3312 2.9,4.5151 9.6,4.2141 13,-0.50168 3.4,-4.71578 1.7,-11.238 -2.6,-15.251 -5.3,-4.9165 -14.2,-4.0134 -18.4,2.9098 -5.2,8.7292 -1,18.261 4.8,24.984 l 10.7,10.535 c 5.8,6.7225 10.1,16.254 4.8,24.984 -4.1,6.9232 -13,7.9265 -18.2,3.1104 -4.4,-4.1138 -6.1,-10.535 -2.7,-15.251 3.4,-4.716 10.1,-5.0168 13,-0.50168 2.5,3.9131 0.6,8.4282 -3,9.3312"
		   stroke="#ffcc00"
		   stroke-linecap="round"
		   stroke-width="4.0067"
		   id="path10421" />
	  </g>
	</g>
  </g>
</svg>
