<?xml version="1.0" encoding="UTF-8" standalone="no"?>
<svg
   version="1.1"
   width="600"
   height="400"
   style="clip-rule:evenodd;fill-rule:evenodd;image-rendering:optimizeQuality;shape-rendering:geometricPrecision;text-rendering:geometricPrecision"
   id="svg19219"
   sodipodi:docname="tt.svg"
   inkscape:version="1.2.2 (b0a84865, 2022-12-01)"
   xmlns:inkscape="http://www.inkscape.org/namespaces/inkscape"
   xmlns:sodipodi="http://sodipodi.sourceforge.net/DTD/sodipodi-0.dtd"
   xmlns="http://www.w3.org/2000/svg"
   xmlns:svg="http://www.w3.org/2000/svg">
  <defs
     id="defs19223" />
  <sodipodi:namedview
     id="namedview19221"
     pagecolor="#ffffff"
     bordercolor="#666666"
     borderopacity="1.0"
     inkscape:showpageshadow="2"
     inkscape:pageopacity="0.0"
     inkscape:pagecheckerboard="0"
     inkscape:deskcolor="#d1d1d1"
     showgrid="false"
     inkscape:zoom="1.4975"
     inkscape:cx="300.16694"
     inkscape:cy="200"
     inkscape:window-width="1440"
     inkscape:window-height="819"
     inkscape:window-x="0"
     inkscape:window-y="25"
     inkscape:window-maximized="0"
     inkscape:current-layer="svg19219" />
  <g
     id="g19264"
     transform="matrix(0.234375,0,0,0.23432923,0.1171875,0.11716462)">
    <g
       id="g19205">
      <path
         style="opacity:1"
         fill="#008100"
         d="m -0.5,-0.5 c 853.333,0 1706.67,0 2560,0 0,265.667 0,531.333 0,797 -853.33,0 -1706.667,0 -2560,0 0,-265.667 0,-531.333 0,-797 z"
         id="path19203" />
    </g>
    <g
       id="g19209">
      <path
         style="opacity:1"
         fill="#fefefe"
         d="m -0.5,796.5 c 853.333,0 1706.67,0 2560,0 0,38 0,76 0,114 -853.33,0 -1706.667,0 -2560,0 0,-38 0,-76 0,-114 z"
         id="path19207" />
    </g>
    <g
       id="g19213">
      <path
         style="opacity:1"
         fill="#ff3e36"
         d="m -0.5,910.5 c 853.333,0 1706.67,0 2560,0 0,0.333 0,0.667 0,1 -853,0 -1706,0 -2559,0 0,265 0,530 0,795 -0.333333,0 -0.666667,0 -1,0 0,-265.33 0,-530.67 0,-796 z"
         id="path19211" />
    </g>
    <g
       id="g19217">
      <path
         style="opacity:1"
         fill="#fe0000"
         d="m 2559.5,911.5 c 0,265 0,530 0,795 -853,0 -1706,0 -2559,0 0,-265 0,-530 0,-795 853,0 1706,0 2559,0 z"
         id="path19215" />
    </g>
  </g>
</svg>
