<svg width="50" height="32" viewBox="0 0 50 32" fill="none" xmlns="http://www.w3.org/2000/svg">
<g clip-path="url(#clip0_2593_31318)">
<path d="M50 5.62048H0V7.22321H50V5.62048Z" fill="black"/>
<path d="M50 0H0V5.62048H50V0Z" fill="#008700"/>
<path d="M50 26.4031H0V32H50V26.4031Z" fill="#008700"/>
<path d="M50 24.8248H0V26.4031H50V24.8248Z" fill="black"/>
<path d="M50 7.22321H0V24.8248H50V7.22321Z" fill="#0032FC"/>
<path fill-rule="evenodd" clip-rule="evenodd" d="M34.5367 24.4072C34.2926 24.3192 34.0486 24.2313 33.8044 24.1434C32.2534 23.585 30.7026 23.0259 29.1504 22.4708C29.066 22.4406 29.0446 22.4021 29.0446 22.318C29.0469 19.941 29.046 17.564 29.0481 15.1871C29.0481 15.1022 29.0257 15.0352 28.9771 14.9669C28.4538 14.2328 27.806 13.6462 26.9474 13.3299C25.6756 12.8615 24.498 13.0776 23.4146 13.8627C22.9913 14.1694 22.6448 14.5524 22.3444 14.9779C22.3006 15.04 22.2821 15.1013 22.2821 15.1769C22.2836 17.5498 22.2824 19.9228 22.2864 22.2958C22.2866 22.4035 22.2533 22.444 22.155 22.4791C20.4067 23.1052 18.66 23.7356 16.9127 24.3641C16.8727 24.3785 16.8346 24.407 16.7844 24.3958C16.8542 24.3237 16.9199 24.2506 16.9911 24.1835C17.8904 23.3354 18.7899 22.4875 19.692 21.6423C19.7634 21.5755 19.7801 21.526 19.7362 21.431C19.2131 20.301 18.7741 19.1408 18.4819 17.9288C18.2198 16.8417 18.0771 15.7422 18.1576 14.6231C18.3051 12.57 19.1829 10.8948 20.8062 9.61091C21.6955 8.90755 22.6943 8.40152 23.7506 7.99952C24.073 7.87685 24.4018 7.77244 24.7286 7.6622C24.8366 7.62576 24.8684 7.64939 24.8929 7.75596C25.1394 8.8263 25.391 9.89551 25.6413 10.965C25.6447 10.9796 25.6499 10.9937 25.6754 11.0111C25.7104 10.8676 25.7468 10.7243 25.7803 10.5804C26.0009 9.63529 26.2205 8.68979 26.4422 7.74486C26.4547 7.69157 26.4413 7.61493 26.5545 7.64986C27.8155 8.03868 29.0219 8.54358 30.1078 9.3024C31.2765 10.1191 32.178 11.1529 32.7018 12.4899C33.0751 13.4429 33.2151 14.4344 33.1894 15.4513C33.1477 17.0987 32.7197 18.6617 32.1267 20.1873C31.9617 20.6118 31.7845 21.0313 31.588 21.4423C31.5479 21.526 31.5632 21.573 31.6292 21.6349C32.5838 22.5296 33.5356 23.4274 34.4884 24.324C34.5086 24.3431 34.5337 24.357 34.5565 24.3733C34.5499 24.3847 34.5434 24.3961 34.5368 24.4075L34.5367 24.4072Z" fill="#FEFEFE"/>
<path fill-rule="evenodd" clip-rule="evenodd" d="M23.7774 19.545C23.9262 19.0587 24.0649 18.6053 24.2038 18.152C24.288 17.8772 24.3689 17.6013 24.459 17.3284C24.4853 17.2487 24.4634 17.2089 24.401 17.1616C23.8353 16.732 23.272 16.2994 22.7086 15.8668C22.6848 15.8485 22.6511 15.8378 22.6402 15.7856C22.8236 15.7856 23.0028 15.786 23.1821 15.7856C23.7334 15.7841 24.2847 15.7807 24.836 15.7826C24.9138 15.7829 24.9449 15.7597 24.968 15.6851C25.1813 14.9947 25.3995 14.3059 25.6166 13.6166C25.6279 13.5805 25.6409 13.5449 25.6645 13.4754C25.7441 13.7257 25.8138 13.9442 25.883 14.1629C26.0432 14.6691 26.2053 15.1747 26.3609 15.6824C26.3857 15.7635 26.4222 15.7825 26.503 15.7827C27.1991 15.7842 27.8953 15.7906 28.5915 15.7959C28.622 15.7961 28.6527 15.7991 28.708 15.8022C28.6602 15.8404 28.6309 15.8647 28.6005 15.8879C28.043 16.3148 27.4864 16.7431 26.926 17.1664C26.8582 17.2176 26.8514 17.2605 26.8746 17.3348C27.0899 18.0246 27.3018 18.7154 27.5145 19.406C27.5259 19.4433 27.5354 19.4811 27.5524 19.5427C27.416 19.4407 27.2982 19.3532 27.1809 19.2649C26.7064 18.9078 26.2309 18.5518 25.7588 18.1915C25.6907 18.1396 25.6477 18.1345 25.5761 18.1891C25.0242 18.6103 24.4685 19.0264 23.914 19.444C23.8791 19.4703 23.8438 19.4961 23.7777 19.5451L23.7774 19.545Z" fill="#FEFEFE"/>
</g>
<defs>
<clipPath id="clip0_2593_31318">
<rect width="50" height="32" fill="white"/>
</clipPath>
</defs>
</svg>
