<?xml version="1.0" encoding="UTF-8" standalone="no"?>
<svg
   width="600"
   height="400"
   version="1.1"
   viewBox="0 0 600 400"
   id="svg2923"
   sodipodi:docname="ba.svg"
   inkscape:version="1.2.2 (b0a84865, 2022-12-01)"
   xmlns:inkscape="http://www.inkscape.org/namespaces/inkscape"
   xmlns:sodipodi="http://sodipodi.sourceforge.net/DTD/sodipodi-0.dtd"
   xmlns="http://www.w3.org/2000/svg"
   xmlns:svg="http://www.w3.org/2000/svg">
  <defs
	 id="defs2927" />
  <sodipodi:namedview
	 id="namedview2925"
	 pagecolor="#ffffff"
	 bordercolor="#666666"
	 borderopacity="1.0"
	 inkscape:showpageshadow="2"
	 inkscape:pageopacity="0.0"
	 inkscape:pagecheckerboard="0"
	 inkscape:deskcolor="#d1d1d1"
	 showgrid="false"
	 inkscape:zoom="1.4975"
	 inkscape:cx="300.16695"
	 inkscape:cy="200"
	 inkscape:window-width="1440"
	 inkscape:window-height="819"
	 inkscape:window-x="0"
	 inkscape:window-y="25"
	 inkscape:window-maximized="0"
	 inkscape:current-layer="svg2923" />
  <g
	 id="g3068"
	 transform="scale(0.66666667)">
	<g
	   id="g3011"
	   style="display:inline">
	  <path
		 d="M 0,300 H 900 V 600 H 0 Z"
		 fill="#007000"
		 stroke-width="2.4495"
		 id="path2869" />
	  <path
		 d="M 0,0 H 900 V 300 H 0 Z"
		 fill="#0070ff"
		 stroke-width="2.4495"
		 id="path2871" />
	  <path
		 d="M 0,200 H 900 V 400 H 0 Z"
		 fill="#ffffff"
		 stroke-width="2"
		 id="path2873" />
	</g>
	<g
	   id="g3037">
	  <circle
		 cx="450"
		 cy="300"
		 r="75"
		 fill="none"
		 stroke="#ffd700"
		 stroke-width="10"
		 id="circle2875" />
	  <circle
		 cx="450"
		 cy="300"
		 r="16"
		 fill="#ffd700"
		 stroke-width="2"
		 id="circle2877" />
	  <g
		 transform="matrix(2,0,0,2,450,300)"
		 id="g2883">
		<path
		   d="M 0,0 H 25"
		   stroke="#ffd700"
		   stroke-width="2"
		   id="path2879" />
		<circle
		   cx="25"
		   r="5"
		   fill="#ffd700"
		   id="circle2881"
		   cy="0" />
	  </g>
	  <g
		 transform="matrix(1.7321,-1,1,1.7321,450,300)"
		 id="g2889">
		<path
		   d="M 0,0 H 25"
		   stroke="#ffd700"
		   stroke-width="2"
		   id="path2885" />
		<circle
		   cx="25"
		   r="5"
		   fill="#ffd700"
		   id="circle2887"
		   cy="0" />
	  </g>
	  <g
		 transform="matrix(1,-1.7321,1.7321,1,450,300)"
		 id="g2895">
		<path
		   d="M 0,0 H 25"
		   stroke="#ffd700"
		   stroke-width="2"
		   id="path2891" />
		<circle
		   cx="25"
		   r="5"
		   fill="#ffd700"
		   id="circle2893"
		   cy="0" />
	  </g>
	  <g
		 transform="matrix(0,-2,2,0,450,300)"
		 id="g2901">
		<path
		   d="M 0,0 H 25"
		   stroke="#ffd700"
		   stroke-width="2"
		   id="path2897" />
		<circle
		   cx="25"
		   r="5"
		   fill="#ffd700"
		   id="circle2899"
		   cy="0" />
	  </g>
	  <g
		 transform="matrix(-1,-1.7321,1.7321,-1,450,300)"
		 id="g2907">
		<path
		   d="M 0,0 H 25"
		   stroke="#ffd700"
		   stroke-width="2"
		   id="path2903" />
		<circle
		   cx="25"
		   r="5"
		   fill="#ffd700"
		   id="circle2905"
		   cy="0" />
	  </g>
	  <g
		 transform="matrix(-1.7321,-1,1,-1.7321,450,300)"
		 id="g2913">
		<path
		   d="M 0,0 H 25"
		   stroke="#ffd700"
		   stroke-width="2"
		   id="path2909" />
		<circle
		   cx="25"
		   r="5"
		   fill="#ffd700"
		   id="circle2911"
		   cy="0" />
	  </g>
	  <g
		 transform="matrix(-2,0,0,-2,450,300)"
		 id="g2919">
		<path
		   d="M 0,0 H 25"
		   stroke="#ffd700"
		   stroke-width="2"
		   id="path2915" />
		<circle
		   cx="25"
		   r="5"
		   fill="#ffd700"
		   id="circle2917"
		   cy="0" />
	  </g>
	  <path
		 d="m 450,300 v 50"
		 stroke="#ffd700"
		 stroke-width="4"
		 id="path2921" />
	</g>
  </g>
</svg>
